<svg width="51" height="51" viewBox="0 0 51 51" fill="none" xmlns="http://www.w3.org/2000/svg">
<g clip-path="url(#clip0_9_43)">
<path d="M12.701 38.299C15.213 40.811 18.4135 42.5217 21.8978 43.2148C25.3821 43.9078 28.9937 43.5521 32.2758 42.1926C35.5579 40.8331 38.3632 38.5309 40.3369 35.5771C42.3105 32.6232 43.364 29.1505 43.364 25.5979C43.364 22.0454 42.3105 18.5726 40.3369 15.6188C38.3632 12.665 35.5579 10.3628 32.2758 9.00326C28.9937 7.64376 25.3821 7.28805 21.8978 7.98112C18.4136 8.67418 15.213 10.3849 12.701 12.8969C9.33725 16.268 7.44812 20.8357 7.44812 25.5979C7.44812 30.3602 9.33725 34.9279 12.701 38.299V38.299ZM35.9862 15.0138C38.0796 17.1071 39.5052 19.7742 40.0827 22.6778C40.6603 25.5813 40.3639 28.591 39.2309 31.3261C38.098 34.0612 36.1795 36.3989 33.718 38.0436C31.2565 39.6884 28.3625 40.5662 25.402 40.5662C22.4416 40.5662 19.5476 39.6884 17.0861 38.0436C14.6246 36.3989 12.706 34.0612 11.5731 31.3261C10.4402 28.591 10.1438 25.5813 10.7213 22.6778C11.2989 19.7742 12.7245 17.1071 14.8178 15.0138C17.6271 12.2107 21.4335 10.6365 25.402 10.6364C29.3705 10.6364 33.177 12.2107 35.9862 15.0138ZM20.654 21.3643L20.654 18.3711L29.6357 18.3711C30.4295 18.3712 31.1908 18.6866 31.7521 19.2479C32.3134 19.8092 32.6288 20.5705 32.6289 21.3643V30.346H29.6357L29.6357 23.4811L20.1099 33.0069L17.9931 30.89L27.5189 21.3643H20.654Z" fill="white"/>
</g>
<defs>
<clipPath id="clip0_9_43">
<rect width="35.9239" height="35.9239" fill="white" transform="translate(25.402 51) rotate(-135)"/>
</clipPath>
</defs>
</svg>
