<svg width="22" height="22" viewBox="0 0 22 22" fill="none" xmlns="http://www.w3.org/2000/svg">
<g clip-path="url(#clip0_26_93)">
<path d="M19.7477 6.51195C19.7606 6.70536 19.7606 6.8997 19.7606 7.09495C19.7606 13.0597 15.2194 19.9374 6.91808 19.9374V19.9338C4.466 19.9374 2.06433 19.2353 0 17.9107C0.356583 17.9538 0.715 17.9749 1.07433 17.9758C3.1075 17.9776 5.082 17.2956 6.67975 16.0398C4.74833 16.0031 3.05433 14.7436 2.46308 12.9048C3.13958 13.0349 3.83625 13.0084 4.50083 12.8278C2.39433 12.4024 0.88 10.5517 0.88 8.40303C0.88 8.38378 0.88 8.36453 0.88 8.3462C1.50792 8.69636 2.21008 8.88978 2.92875 8.91086C0.945083 7.58628 0.33275 4.94811 1.53083 2.88561C3.8225 5.70528 7.20408 7.41945 10.8332 7.60186C10.4692 6.03436 10.967 4.3917 12.1385 3.28895C13.9563 1.57936 16.8153 1.66736 18.5249 3.48511C19.536 3.2862 20.5049 2.91495 21.3913 2.3897C21.054 3.4347 20.3491 4.32203 19.4067 4.8867C20.3023 4.77945 21.1759 4.5402 22 4.17536C21.3941 5.08195 20.6314 5.87303 19.7477 6.51195Z" fill="white"/>
</g>
<defs>
<clipPath id="clip0_26_93">
<rect width="22" height="22" fill="white"/>
</clipPath>
</defs>
</svg>
