<svg width="22" height="18" viewBox="0 0 22 18" fill="none" xmlns="http://www.w3.org/2000/svg">
<path d="M19.7477 4.51201C19.7606 4.70542 19.7606 4.89976 19.7606 5.09501C19.7606 11.0598 15.2194 17.9375 6.91808 17.9375V17.9338C4.466 17.9375 2.06433 17.2353 0 15.9108C0.356583 15.9538 0.715 15.9749 1.07433 15.9758C3.1075 15.9777 5.082 15.2957 6.67975 14.0398C4.74833 14.0032 3.05433 12.7437 2.46308 10.9048C3.13958 11.035 3.83625 11.0084 4.50083 10.8278C2.39433 10.4025 0.88 8.55176 0.88 6.40309C0.88 6.38384 0.88 6.36459 0.88 6.34626C1.50792 6.69642 2.21008 6.88984 2.92875 6.91092C0.945083 5.58634 0.33275 2.94817 1.53083 0.885674C3.8225 3.70534 7.20408 5.41951 10.8332 5.60192C10.4692 4.03442 10.967 2.39176 12.1385 1.28901C13.9563 -0.420576 16.8153 -0.332576 18.5249 1.48517C19.536 1.28626 20.5049 0.915007 21.3913 0.389757C21.054 1.43476 20.3491 2.32209 19.4067 2.88676C20.3023 2.77951 21.1759 2.54026 22 2.17542C21.3941 3.08201 20.6314 3.87309 19.7477 4.51201Z" fill="black"/>
</svg>
