<svg width="22" height="22" viewBox="0 0 22 22" fill="none" xmlns="http://www.w3.org/2000/svg">
<path fill-rule="evenodd" clip-rule="evenodd" d="M18.7577 3.19733C16.6989 1.13667 13.9617 0.000916667 11.0458 0C5.03708 0 0.146663 4.8895 0.143913 10.901C0.142996 12.8223 0.645329 14.6978 1.59958 16.3515L0.0522461 22L5.83091 20.4838C7.42316 21.3528 9.21616 21.8103 11.0403 21.8112H11.0449C17.0527 21.8112 21.9441 16.9207 21.9468 10.9093C21.9487 7.997 20.8157 5.25708 18.7577 3.19733ZM11.0458 19.9696H11.0422C9.416 19.9696 7.82191 19.5323 6.43041 18.7064L6.0995 18.5103L2.67025 19.4095L3.586 16.0655L3.37058 15.7227C2.46308 14.2798 1.98458 12.6124 1.9855 10.901C1.98733 5.90517 6.05275 1.84067 11.0504 1.84067C13.4704 1.84067 15.7456 2.78483 17.4561 4.49717C19.1666 6.21042 20.108 8.4865 20.1071 10.9074C20.1043 15.9051 16.0398 19.9696 11.0458 19.9696ZM16.016 13.1835C15.7437 13.0469 14.4045 12.3878 14.1542 12.2971C13.9049 12.2063 13.7234 12.1605 13.541 12.4327C13.3586 12.705 12.8379 13.3192 12.6784 13.5016C12.5198 13.6831 12.3603 13.706 12.0881 13.5694C11.8158 13.4328 10.9377 13.1459 9.89725 12.2173C9.08783 11.495 8.54058 10.6031 8.382 10.3299C8.22341 10.0568 8.3655 9.91008 8.50116 9.77442C8.624 9.6525 8.77341 9.45633 8.91 9.29683C9.0475 9.13917 9.09241 9.0255 9.18408 8.84308C9.27483 8.66158 9.22991 8.50208 9.16116 8.3655C9.09241 8.22983 8.54791 6.88875 8.3215 6.34333C8.10058 5.81167 7.876 5.88408 7.70825 5.87583C7.54966 5.86758 7.36816 5.86667 7.18575 5.86667C7.00425 5.86667 6.70908 5.9345 6.45975 6.20767C6.21041 6.48083 5.50641 7.13992 5.50641 8.48008C5.50641 9.82117 6.48266 11.1164 6.61833 11.2979C6.754 11.4794 8.53875 14.2313 11.2713 15.411C11.9212 15.6915 12.4291 15.8593 12.8242 15.9848C13.4768 16.192 14.0708 16.1627 14.5402 16.093C15.0636 16.0151 16.1517 15.4339 16.379 14.7978C16.6063 14.1616 16.6063 13.6152 16.5376 13.5025C16.4697 13.3879 16.2882 13.3201 16.016 13.1835Z" fill="white"/>
</svg>
