<svg width="22" height="22" viewBox="0 0 22 22" fill="none" xmlns="http://www.w3.org/2000/svg">
<g clip-path="url(#clip0_26_104)">
<path d="M21.5398 5.67049C21.2868 4.71807 20.5416 3.96732 19.5947 3.71249C17.8796 3.25049 11 3.25049 11 3.25049C11 3.25049 4.12042 3.25049 2.40442 3.71249C1.45842 3.96732 0.713167 4.71715 0.460167 5.67049C0 7.39749 0 11 0 11C0 11 0 14.6025 0.460167 16.3295C0.713167 17.2819 1.45842 18.0327 2.40533 18.2875C4.12042 18.7495 11 18.7495 11 18.7495C11 18.7495 17.8796 18.7495 19.5956 18.2875C20.5416 18.0327 21.2868 17.2828 21.5408 16.3295C22 14.6025 22 11 22 11C22 11 22 7.39749 21.5398 5.67049ZM8.7505 14.2716V7.7284L14.4998 11L8.7505 14.2716Z" fill="white"/>
</g>
<defs>
<clipPath id="clip0_26_104">
<rect width="22" height="22" fill="white"/>
</clipPath>
</defs>
</svg>
